<svg xmlns="http://www.w3.org/2000/svg" id="Layer_1" viewBox="232.96 269.06 331.2 82.79"><g><path d="m341.41,316.3v7.06c0,.86.74,1.56,1.65,1.56h28.7c.91,0,1.65.7,1.65,1.56v3.88c0,.86.74,1.56,1.65,1.56h8.37c.91,0,1.65-.7,1.65-1.56v-39.81c0-.86-.74-1.56-1.65-1.56h-9.39c-.4,0-.79.14-1.09.39l-30.97,25.76c-.36.3-.56.72-.56,1.17Zm30.86-.7h-15.21c-1.05,0-1.54-1.24-.73-1.89l15.21-12.19c.74-.59,1.86-.09,1.86.82v12.19c0,.59-.51,1.07-1.13,1.07Z"/><path d="m445.98,304.75c0-9.57-7.06-15.76-17.36-15.76h-16.28c-.91,0-1.65.7-1.65,1.56v6.14c0,.86.74,1.56,1.65,1.56h13.04c3.5,0,8.94,0,8.94,6.5s-5.44,6.44-8.94,6.44h-13.04c-.91,0-1.65.7-1.65,1.56v6.14c0,.86.74,1.56,1.65,1.56h10.17c.58,0,1.11.29,1.41.75l6.36,9.96c.3.47.83.75,1.41.75h9.85c1.29,0,2.08-1.34,1.4-2.38l-5.82-8.88c-.51-.78-.2-1.78.66-2.2,5.12-2.54,8.21-7.36,8.21-13.7Z"/><path d="m404.66,311.18v-20.64c0-.86-.74-1.56-1.65-1.56h-8.37c-.91,0-1.65.7-1.65,1.56v39.81c0,.86.74,1.56,1.65,1.56h8.37c.91,0,1.65-.7,1.65-1.56v-19.17Z"/><path d="m450.03,298.25h16.73c.91,0,1.65.7,1.65,1.56v30.55c0,.86.74,1.56,1.65,1.56h8.37c.91,0,1.65-.7,1.65-1.56v-30.55c0-.86.74-1.56,1.65-1.56h16.73c.91,0,1.65-.7,1.65-1.56v-6.14c0-.86-.74-1.56-1.65-1.56h-48.41c-.91,0-1.65.7-1.65,1.56v6.14c0,.86.74,1.56,1.65,1.56Z"/><path d="m515.57,304.23v-13.68c0-.86-.74-1.56-1.65-1.56h-8.37c-.91,0-1.65.7-1.65,1.56v39.81c0,.86.74,1.56,1.65,1.56h8.37c.91,0,1.65-.7,1.65-1.56v-13.69c0-.86.74-1.56,1.65-1.56h12.15c.91,0,1.65-.7,1.65-1.56v-6.21c0-.86-.74-1.56-1.65-1.56h-12.15c-.91,0-1.65-.7-1.65-1.56Z"/><path d="m552.49,290.55v13.68c0,.86-.74,1.56-1.65,1.56h-12.15c-.91,0-1.65.7-1.65,1.56v6.21c0,.86.74,1.56,1.65,1.56h12.15c.91,0,1.65.7,1.65,1.56v13.69c0,.86.74,1.56,1.65,1.56h8.37c.91,0,1.65-.7,1.65-1.56v-39.81c0-.86-.74-1.56-1.65-1.56h-8.37c-.91,0-1.65.7-1.65,1.56Z"/></g><g><path d="m242.2,306.1h-7.47c-.97,0-1.76-.79-1.76-1.76v-14.12c0-11.69,9.47-21.16,21.16-21.16h7.89c.91,0,1.65.74,1.65,1.65v7.69c0,.91-.74,1.65-1.65,1.65h-7.89c-5.61,0-10.16,4.55-10.16,10.16v14.12c0,.97-.79,1.76-1.76,1.76Z"/><path d="m261.98,351.84h-7.86c-11.69,0-21.16-9.47-21.16-21.16v-14.23c0-.91.74-1.65,1.65-1.65h7.69c.91,0,1.65.74,1.65,1.65v14.23c0,5.61,4.55,10.16,10.16,10.16h7.86c.93,0,1.68.75,1.68,1.68v7.63c0,.93-.75,1.68-1.68,1.68Z"/><circle cx="287.15" cy="288.05" r="18.09"/><path d="m281.91,351.84h-7.75c-.99,0-1.79-.8-1.79-1.79v-7.41c0-.99.8-1.79,1.79-1.79h7.75c5.61,0,10.16-4.55,10.16-10.16v-14.23c0-.91.74-1.65,1.65-1.65h7.71c.91,0,1.65.74,1.65,1.65v14.23c0,11.69-9.47,21.16-21.16,21.16Z"/></g></svg>