<svg data-v-423bf9ae="" xmlns="http://www.w3.org/2000/svg" viewBox="0 0 492 90" class="iconLeft"><g data-v-423bf9ae="" id="d9a9a77c-aa50-4c1e-afd8-a68055baa9f8" fill="white" transform="matrix(5.830903811703725,0,0,5.830903811703725,128.2881448323181,12.551021672677557)"><path d="M1.02 10.50L2.98 10.50L2.98 6.83L3.79 6.83C5.05 6.83 5.71 7.38 6.38 8.81L7.18 10.50L9.52 10.50L8.37 8.16C7.94 7.27 7.17 6.34 6.15 6.15C7.69 5.92 8.65 4.97 8.65 3.43C8.65 1.22 6.94 0.42 4.80 0.42L1.02 0.42ZM2.98 2.20L4.30 2.20C5.63 2.20 6.64 2.42 6.64 3.67C6.64 4.70 5.81 5.15 4.33 5.15L2.98 5.15ZM9.81 6.86C9.81 9.46 11.40 10.71 13.36 10.71C15.33 10.71 16.91 9.46 16.91 6.86C16.91 4.26 15.33 3.01 13.36 3.01C11.40 3.01 9.81 4.26 9.81 6.86ZM11.66 6.86C11.66 5.32 12.35 4.55 13.36 4.55C14.36 4.55 15.06 5.32 15.06 6.86C15.06 8.41 14.36 9.17 13.36 9.17C12.35 9.17 11.66 8.41 11.66 6.86ZM22.71 3.22L22.71 7.18C22.71 8.48 22.05 9.16 21.20 9.16C20.30 9.16 19.96 8.60 19.96 7.63L19.96 3.22L18.12 3.22L18.12 7.69C18.12 9.42 18.70 10.71 20.72 10.71C21.63 10.71 22.30 10.32 22.83 9.45L22.83 10.50L24.56 10.50L24.56 3.22ZM29.76 8.95C29.54 9.02 29.33 9.03 29.19 9.03C28.53 9.03 28.53 8.58 28.53 7.95L28.53 4.68L29.88 4.68L29.88 3.22L28.53 3.22L28.53 0.99L26.68 1.60L26.68 3.22L25.65 3.22L25.65 4.68L26.68 4.68L26.68 8.37C26.68 9.80 27.16 10.64 28.69 10.64C28.95 10.64 29.61 10.57 29.89 10.43ZM33.14 10.50L33.14 7.06C33.14 5.64 33.74 4.75 34.94 4.75C35.38 4.75 35.67 4.87 35.95 5.03L36.29 3.39C35.95 3.12 35.56 3.01 35 3.01C33.99 3.01 33.47 3.50 33.01 4.48L33.01 3.22L31.29 3.22L31.29 10.50ZM43.27 10.50L43.27 7.03L45.16 7.03C47.67 7.03 49.03 5.70 49.03 3.67C49.03 1.26 47.08 0.42 45.05 0.42L41.31 0.42L41.31 10.50ZM43.27 2.16L45.02 2.16C46.35 2.16 47.03 2.69 47.03 3.71C47.03 4.54 46.54 5.31 45.05 5.31L43.27 5.31ZM51.73 10.50L51.73 7.06C51.73 5.64 52.33 4.75 53.54 4.75C53.97 4.75 54.26 4.87 54.54 5.03L54.88 3.39C54.54 3.12 54.15 3.01 53.59 3.01C52.58 3.01 52.07 3.50 51.60 4.48L51.60 3.22L49.88 3.22L49.88 10.50ZM55.24 6.86C55.24 9.46 56.83 10.71 58.79 10.71C60.76 10.71 62.34 9.46 62.34 6.86C62.34 4.26 60.76 3.01 58.79 3.01C56.83 3.01 55.24 4.26 55.24 6.86ZM57.09 6.86C57.09 5.32 57.78 4.55 58.79 4.55C59.79 4.55 60.49 5.32 60.49 6.86C60.49 8.41 59.79 9.17 58.79 9.17C57.78 9.17 57.09 8.41 57.09 6.86Z"></path></g><g data-v-423bf9ae="" id="987d944e-ff6d-46ce-84e6-5fb28b8b388c" transform="matrix(1.3183724194658775,0,0,1.3183724194658775,-8.106705920593313,-19.94591670231702)" stroke="none" fill="white"><path d="M83.82 52.74c.122-1.052.202-2.139.202-3.271 0-15.732-10.899-21.443-18.226-21.443-12.196 0-16.608 7.833-20.749 17.325-4.606 11.034-7.957 14.946-12.807 14.946-4.704 0-8.251-4.496-8.251-10.459 0-.529.036-1.049.092-1.566 8.377-.729 14.974-7.771 14.974-16.333 0-9.045-7.358-16.404-16.405-16.404-9.044 0-16.403 7.359-16.403 16.404 0 6.009 3.257 11.259 8.088 14.116a29 29 0 0 0-.231 3.599c0 12.179 8.087 21.718 18.41 21.718 12.342 0 17.328-9.768 22.129-21.554 3.334-8.002 6.593-11.266 11.245-11.266 3.064 0 8.25 2.28 8.25 10.826 0 .512-.062 1.14-.166 1.829-7.849 1.218-13.883 8.005-13.883 16.189 0 9.046 7.358 16.405 16.402 16.405 9.047 0 16.405-7.359 16.405-16.405.001-6.41-3.704-11.958-9.076-14.656M22.65 22.982c4.941 0 8.96 4.018 8.96 8.958s-4.02 8.959-8.96 8.959c-4.939 0-8.958-4.019-8.958-8.959s4.019-8.958 8.958-8.958m53.842 53.373c-4.938 0-8.958-4.02-8.958-8.959 0-4.94 4.02-8.957 8.958-8.957 4.941 0 8.961 4.017 8.961 8.957s-4.019 8.959-8.961 8.959"></path></g></svg>