<?xml version="1.0" encoding="UTF-8"?>
<svg width="421px" height="108px" viewBox="0 0 421 108" version="1.1" xmlns="http://www.w3.org/2000/svg" xmlns:xlink="http://www.w3.org/1999/xlink">
    <!-- Generator: Sketch 47.1 (45422) - http://www.bohemiancoding.com/sketch -->
    <title>Artboard</title>
    <desc>Created with Sketch.</desc>
    <defs></defs>
    <g id="Page-1" stroke="none" stroke-width="1" fill="none" fill-rule="evenodd">
        <g id="Artboard">
            <g id="logo_white">
                <g id="Group" transform="translate(0.000000, 2.000000)">
                    <g id="Group-2" transform="translate(0.000000, 2.000000)">
                        <g id="Rectangle-5">
                            <rect id="path-1" x="0" y="0" width="149" height="102" rx="16"></rect>
                            <rect id="Rectangle-path" stroke="#222" stroke-width="2" x="1.5" y="1.5" width="146" height="99" rx="16"></rect>
                        </g>
                        <circle id="Oval" stroke="#222" stroke-width="2" cx="74.5" cy="51" r="27.5"></circle>
                        <circle id="Oval-3" stroke="#222" stroke-width="3.5" cx="74.5" cy="51" r="21.25"></circle>
                        <circle id="Oval-3-Copy" fill="#222" fill-rule="nonzero" cx="80.5625" cy="44.9375" r="4.5625"></circle>
                    </g>
                    <path d="M121.25,0 L131.25,0 L131.25,0 C132.492641,-2.28269391e-16 133.5,1.00735931 133.5,2.25 L133.5,2.5 L119,2.5 L119,2.25 L119,2.25 C119,1.00735931 120.007359,2.28269391e-16 121.25,0 Z" id="Rectangle-2" fill="#222" fill-rule="nonzero"></path>
                    <path d="M102.25,0 L105.25,0 L105.25,0 C106.492641,-2.28269391e-16 107.5,1.00735931 107.5,2.25 L107.5,2.5 L100,2.5 L100,2.25 L100,2.25 C100,1.00735931 101.007359,2.28269391e-16 102.25,0 Z" id="Rectangle-2-Copy" fill="#222" fill-rule="nonzero"></path>
                    <circle id="Oval-5" fill="#222" fill-rule="nonzero" cx="126.5" cy="13" r="2.5"></circle>
                </g>
                <path d="M178,74.0823409 L178,0 L206.045458,0 C229.434311,0 245.097435,15.6631235 245.097435,37.0411705 C245.097435,58.4192174 229.434311,74.0823409 206.045458,74.0823409 L178,74.0823409 Z M180.116638,72.0715345 L205.833794,72.0715345 C228.481824,72.0715345 242.980796,57.2550663 242.980796,37.0411705 C242.980796,16.8272746 228.481824,2.0108064 205.833794,2.0108064 L180.116638,2.0108064 L180.116638,72.0715345 Z M265.784634,74.0823409 L267.901273,74.0823409 L267.901273,0 L265.784634,0 L265.784634,74.0823409 Z M351.770126,74.0823409 L341.398598,51.7518067 L296.102538,51.7518067 L285.731011,74.0823409 L283.296876,74.0823409 L317.692249,0 L319.808887,0 L354.20426,74.0823409 L351.770126,74.0823409 Z M297.055026,49.7410003 L340.446111,49.7410003 L318.750568,2.85746172 L297.055026,49.7410003 Z M363.779109,72.0715345 L417.965049,1.58747873 L417.965049,0 L361.344974,0 L361.344974,2.0108064 L415.001756,2.0108064 L360.815815,72.4948622 L360.815815,74.0823409 L419.023368,74.0823409 L419.023368,72.0715345 L363.779109,72.0715345 Z M197.682531,107.889758 L196.763852,107.889758 L190.222851,98.8132018 C189.304171,98.9969377 188.27525,99.0704321 187.209581,99.0704321 L179.235441,99.0704321 L179.235441,107.889758 L178.500497,107.889758 L178.500497,82.1667234 L187.209581,82.1667234 C193.530099,82.1667234 197.31506,85.2902348 197.31506,90.6185777 C197.31506,94.7710105 194.999986,97.6005444 190.994542,98.6294658 L197.682531,107.889758 Z M179.235441,98.3722355 L187.283076,98.3722355 C193.309616,98.3722355 196.580116,95.5427016 196.580116,90.6185777 C196.580116,85.6944539 193.309616,82.86492 187.283076,82.86492 L179.235441,82.86492 L179.235441,98.3722355 Z M206.428363,107.191562 L206.428363,95.1752297 L220.61278,95.1752297 L220.61278,94.477033 L206.428363,94.477033 L206.428363,82.86492 L222.266404,82.86492 L222.266404,82.1667234 L205.69342,82.1667234 L205.69342,107.889758 L222.817611,107.889758 L222.817611,107.191562 L206.428363,107.191562 Z M250.341259,107.889758 L246.740034,100.136101 L231.012235,100.136101 L227.411011,107.889758 L226.565825,107.889758 L238.508663,82.1667234 L239.243607,82.1667234 L251.186444,107.889758 L250.341259,107.889758 Z M231.34296,99.437904 L246.409309,99.437904 L238.876135,83.1588976 L231.34296,99.437904 Z M257.286478,107.889758 L273.345002,107.889758 L273.345002,107.191562 L258.021422,107.191562 L258.021422,82.1667234 L257.286478,82.1667234 L257.286478,107.889758 Z M290.285458,107.191562 L290.285458,95.1752297 L304.469874,95.1752297 L304.469874,94.477033 L290.285458,94.477033 L290.285458,82.86492 L306.123498,82.86492 L306.123498,82.1667234 L289.550514,82.1667234 L289.550514,107.889758 L306.674706,107.889758 L306.674706,107.191562 L290.285458,107.191562 Z M321.263341,108 C327.363375,108 330.04592,104.98673 330.04592,101.569241 C330.04592,92.2722014 313.69342,97.2330725 313.69342,88.5607349 C313.69342,85.3637292 316.192229,82.7546785 321.594066,82.7546785 C323.909139,82.7546785 326.554937,83.4896223 328.61278,84.9962572 L329.016999,84.4083021 C327.142892,82.9751616 324.313358,82.0564818 321.557319,82.0564818 C315.530779,82.0564818 312.958476,85.143246 312.958476,88.5239878 C312.958476,98.0047635 329.310977,92.9336509 329.310977,101.569241 C329.310977,104.7295 326.812167,107.301803 321.226594,107.301803 C317.625369,107.301803 314.354869,105.795168 312.737993,103.884314 L312.223532,104.362028 C313.95065,106.493365 317.515128,108 321.263341,108 Z M342.392977,107.889758 L343.127921,107.889758 L343.127921,82.86492 L352.682191,82.86492 L352.682191,82.1667234 L332.838707,82.1667234 L332.838707,82.86492 L342.392977,82.86492 L342.392977,107.889758 Z M376.531119,107.889758 L372.929895,100.136101 L357.202096,100.136101 L353.600871,107.889758 L352.755686,107.889758 L364.698523,82.1667234 L365.433467,82.1667234 L377.376305,107.889758 L376.531119,107.889758 Z M357.532821,99.437904 L372.59917,99.437904 L365.065995,83.1588976 L357.532821,99.437904 Z M387.004069,107.889758 L387.739013,107.889758 L387.739013,82.86492 L397.293283,82.86492 L397.293283,82.1667234 L377.449799,82.1667234 L377.449799,82.86492 L387.004069,82.86492 L387.004069,107.889758 Z M403.944525,107.191562 L403.944525,95.1752297 L418.128942,95.1752297 L418.128942,94.477033 L403.944525,94.477033 L403.944525,82.86492 L419.782565,82.86492 L419.782565,82.1667234 L403.209581,82.1667234 L403.209581,107.889758 L420.333773,107.889758 L420.333773,107.191562 L403.944525,107.191562 Z" id="DIAZ-REAL-ESTATE" fill="#222"></path>
            </g>
        </g>
    </g>
</svg>