<svg id="Group_561" data-name="Group 561" xmlns="http://www.w3.org/2000/svg" viewBox="0 0 130.508 30.801">
  <defs>
    <style>
      .cls-1 {
        fill: #101820;
      }

      .cls-2 {
        fill: #00b2e2;
      }
    </style>
  </defs>
  <g id="Group_559" data-name="Group 559" transform="translate(36.587 2.256)">
    <path id="Path_2059" data-name="Path 2059" class="cls-1" d="M77.4,38.392H75.287a.67.67,0,0,1-.687-.687V16.028a.67.67,0,0,1,.687-.687h2.06a.67.67,0,0,1,.687.687v.932a6.376,6.376,0,0,1,4.659-2.06,6.528,6.528,0,0,1,5.1,2.256A8.082,8.082,0,0,1,89.8,22.845a8.059,8.059,0,0,1-2.011,5.591,6.473,6.473,0,0,1-5.052,2.207,6.351,6.351,0,0,1-4.708-2.109v9.122A.648.648,0,0,1,77.4,38.392Zm8.877-15.5A5.075,5.075,0,0,0,85.1,19.412,3.7,3.7,0,0,0,82.1,18.039a3.936,3.936,0,0,0-3.09,1.324,5.075,5.075,0,0,0-1.177,3.482,5.162,5.162,0,0,0,1.177,3.482,3.936,3.936,0,0,0,3.09,1.324,3.6,3.6,0,0,0,2.943-1.373A4.877,4.877,0,0,0,86.273,22.894Z" transform="translate(-74.6 -9.848)"/>
    <path id="Path_2060" data-name="Path 2060" class="cls-1" d="M121.857,15.392h2.109a.67.67,0,0,1,.687.687V29.664a.67.67,0,0,1-.687.687h-2.109a.67.67,0,0,1-.687-.687v-.883a6.65,6.65,0,0,1-9.76-.245,8.4,8.4,0,0,1-2.011-5.689,8.059,8.059,0,0,1,2.011-5.591A6.589,6.589,0,0,1,116.462,15a6.384,6.384,0,0,1,4.659,2.158v-1.03A.753.753,0,0,1,121.857,15.392ZM112.98,22.8a5.3,5.3,0,0,0,1.128,3.482,3.7,3.7,0,0,0,2.992,1.373,3.936,3.936,0,0,0,3.09-1.324,5.162,5.162,0,0,0,1.177-3.482,5.162,5.162,0,0,0-1.177-3.482,3.936,3.936,0,0,0-3.09-1.324,3.833,3.833,0,0,0-2.992,1.373A5.31,5.31,0,0,0,112.98,22.8Z" transform="translate(-92.332 -9.899)"/>
    <path id="Path_2061" data-name="Path 2061" class="cls-1" d="M150.1,13.281V24.316a.67.67,0,0,1-.687.687h-2.06a.67.67,0,0,1-.687-.687V13.281h-.785a.67.67,0,0,1-.687-.687V10.731a.67.67,0,0,1,.687-.687h.785V5.287a.67.67,0,0,1,.687-.687h2.06a.67.67,0,0,1,.687.687v4.806h2.011a.67.67,0,0,1,.687.687v1.864a.67.67,0,0,1-.687.687H150.1Z" transform="translate(-110.575 -4.6)"/>
    <path id="Path_2062" data-name="Path 2062" class="cls-1" d="M169.1,13.281V24.316a.67.67,0,0,1-.687.687h-2.06a.67.67,0,0,1-.687-.687V13.281h-.785a.67.67,0,0,1-.687-.687V10.731a.67.67,0,0,1,.687-.687h.785V5.287a.67.67,0,0,1,.687-.687h2.06a.67.67,0,0,1,.687.687v4.806h2.011a.67.67,0,0,1,.687.687v1.864a.67.67,0,0,1-.687.687H169.1Z" transform="translate(-120.256 -4.6)"/>
    <path id="Path_2063" data-name="Path 2063" class="cls-1" d="M195.283,23.681H185.278a4.719,4.719,0,0,0,1.177,2.943,3.548,3.548,0,0,0,2.7,1.079,3.417,3.417,0,0,0,2.158-.638,7.269,7.269,0,0,0,1.52-1.766.639.639,0,0,1,.883-.2l1.717.981a.714.714,0,0,1,.245.981,15.57,15.57,0,0,1-1.03,1.324,8.582,8.582,0,0,1-1.618,1.373,7.88,7.88,0,0,1-1.864.785,10.019,10.019,0,0,1-2.158.245,7.2,7.2,0,0,1-5.395-2.158A7.885,7.885,0,0,1,181.6,22.9a8.237,8.237,0,0,1,1.962-5.738A6.874,6.874,0,0,1,188.81,15a6.591,6.591,0,0,1,5.2,2.109,7.658,7.658,0,0,1,2.011,5.738v.1A.754.754,0,0,1,195.283,23.681Zm-2.845-2.845a3.267,3.267,0,0,0-3.482-2.746,2.968,2.968,0,0,0-1.177.2,4.131,4.131,0,0,0-1.03.539,3.825,3.825,0,0,0-1.275,2.011Z" transform="translate(-129.122 -9.899)"/>
    <path id="Path_2064" data-name="Path 2064" class="cls-1" d="M217.287,15.341h2.06a.67.67,0,0,1,.687.687v.638a6.223,6.223,0,0,1,1.667-1.373,3.908,3.908,0,0,1,1.766-.392,5.613,5.613,0,0,1,2.256.539.662.662,0,0,1,.294.932l-.932,1.913a.621.621,0,0,1-.883.294,2.669,2.669,0,0,0-1.324-.343c-1.864,0-2.845,1.422-2.845,4.267v7.062a.67.67,0,0,1-.687.687h-2.06a.67.67,0,0,1-.687-.687V16.028A.67.67,0,0,1,217.287,15.341Z" transform="translate(-146.957 -9.848)"/>
    <path id="Path_2065" data-name="Path 2065" class="cls-1" d="M240.487,15.341H242.6a.67.67,0,0,1,.687.687v.687a5.759,5.759,0,0,1,4.071-1.815,5.247,5.247,0,0,1,4.071,1.618A6.757,6.757,0,0,1,252.7,21.08v8.485a.67.67,0,0,1-.687.687H249.9a.67.67,0,0,1-.687-.687V21.913a5.086,5.086,0,0,0-.638-3.041,2.424,2.424,0,0,0-2.158-.883,2.76,2.76,0,0,0-2.452,1.128,7.651,7.651,0,0,0-.687,3.924v6.523a.67.67,0,0,1-.687.687h-2.109a.67.67,0,0,1-.687-.687V16.028A.67.67,0,0,1,240.487,15.341Z" transform="translate(-158.778 -9.848)"/>
  </g>
  <g id="Group_560" data-name="Group 560" transform="translate(0)">
    <path id="Path_2066" data-name="Path 2066" class="cls-2" d="M4.169,22.462.294,18.588a.948.948,0,0,1,0-1.373L17.166.294a.948.948,0,0,1,1.373,0l3.875,3.875a.948.948,0,0,1,0,1.373L5.542,22.462A1.044,1.044,0,0,1,4.169,22.462Z" transform="translate(0)"/>
    <path id="Path_2067" data-name="Path 2067" class="cls-2" d="M32.669,30.161l-3.875-3.875a.948.948,0,0,1,0-1.373l9.318-9.318a.948.948,0,0,1,1.373,0l3.875,3.875a.948.948,0,0,1,0,1.373l-9.318,9.318A.948.948,0,0,1,32.669,30.161Z" transform="translate(-14.522 -7.796)"/>
  </g>
</svg>
